Patient4_TMGait_0pt2_03_right_05_EMG.mot
version=1
nRows=37
nColumns=33
inDegrees=no
endheader
time	1LAddLong	2LGlutMax	3LGlutMed	4LIliopsoas	5LSemiMemb	6LBicFemLong	7LRecFem	8LVastMed	9LVastLat	10LGasMed	11LTibAnt	12lTibPost	13LPeroneusLong	14LSol	15LExtDigLong	16LFlexDigLong	17RAddLong	18RGlutMax	19RGlutMed	20RIliopsoas	21RSemiMemb	22RBicFemLong	23RRecFem	24RVastMed	25RVastLat	26RGasMed	27RTibAnt	28RTibPost	29RPeroneusLong	30RSol	31RExtDigLong	32RFlexDigLong
12.818	-0.007935	-0.035706	0.14358	-0.024414	-0.034485	0.060577	0.69763	0.027771	-0.07843	-0.021515	-0.15152	0.003204	0.10407	-0.009766	-0.1976	0.012207	0.023499	-0.029755	0.34943	0.059814	0.014801	0.09079	-0.028534	-0.08316	0.003662	-0.009155	0.60638	-0.006104	-0.4538	0.1178	-0.000458	-0.012512
12.819	0.005035	-0.044403	0.13916	0.018158	-0.00885	0.015717	0.51636	0.022278	-0.036316	0.002441	0.062408	0.006409	0.068207	0.18372	0.13901	0.016022	0.019684	-0.089264	-0.055084	0.41504	0.015717	0.087433	-0.060577	-0.11108	-0.000458	-0.000916	0.86945	-0.00412	0.15991	0.016937	0.001068	-0.010681
12.82	0.016632	0.017853	0.035858	0.003967	-0.011292	0.000153	0.32455	0.020294	-0.022888	0.057068	0.20615	-0.01358	0.062714	0.10391	0.006409	0.021057	0.034943	-0.048065	-0.11688	0.48035	-0.001831	0.059814	-0.072479	-0.159	0.00473	-0.010223	0.7695	-0.001678	0.1236	0.053253	-0.00473	-0.01358
12.821	0.034485	-0.031433	-0.11246	0.019684	0.012665	-0.008087	0.21545	0.027313	-0.038147	0.055542	0.2536	0.004883	0.12268	-0.06073	-0.025635	0.001221	0.065613	-0.067902	0.36133	0.10132	0.005493	0.037842	-0.2684	-0.083771	-0.015869	-0.011749	0.25253	-0.002747	-0.16647	0.01297	-0.001678	-0.006256
12.822	0.045166	-0.005035	-0.056	-0.014038	0.02655	0.00473	-0.006104	0.03067	-0.14816	0.039063	0.028839	0.003815	0.30762	0.010834	0.092468	0.004578	0.091248	-0.05661	0.62393	0.058899	0.016174	0.023499	-0.55649	-0.1152	-0.006104	-0.014343	-0.19501	-0.003204	-0.22858	0.003967	-0.002899	-0.010681
12.823	0.041504	-0.024719	-0.17151	0.045929	0.074005	0.000153	-0.29694	0.018005	-0.17044	0.040436	-0.18707	0.003815	0.32044	0.17929	0.13092	0.011902	0.1355	-0.050964	0.60806	-0.063934	0.018158	0.015717	-0.46432	-0.13306	-0.031586	-0.015564	-0.66956	-0.001373	-0.093689	0.038757	0.002289	-0.012512
12.824	0.031586	-0.025787	-0.11154	0.0177	0.074463	0.018463	-0.52795	0.016327	-0.01709	0.062256	-0.038757	0.008545	-0.12222	0.081482	-0.010071	0.007172	0.14008	-0.043182	0.3981	-0.47714	0.021515	-0.030823	-0.23621	-0.11505	-0.025635	0.000153	-0.30807	-0.00885	-0.10696	0.038452	0.005798	-0.013123
12.825	0.02243	-0.057678	0.001526	0.011139	0.042114	0.015106	-0.79804	-0.02594	0.32577	0.085144	-0.049438	0.001984	-0.01709	0.06958	-0.059814	0.013885	0.071564	-0.10498	-0.068054	-0.71686	0.03952	-0.01236	-0.031128	-0.15671	-0.027618	-0.009766	0.52033	-0.007324	-0.2005	0.10498	-0.001831	-0.01297
12.826	0.00885	-0.01297	0.22476	0.007172	0.041504	0.032959	-0.56763	-0.011444	0.60013	0.043793	-0.08316	0.020905	0.80933	0.1796	0.159	0.014648	0.036011	-0.085907	-0.45334	-0.383	0.072021	0.036926	0.054321	-0.087585	-0.03067	-0.010529	0.39505	-0.009308	-0.28046	0.057526	-0.002136	-0.010376
12.827	-0.006256	0.00351	0.009766	0.028076	0.030975	0.057526	-0.21927	-0.046387	0.6105	0.019073	-0.11505	0.008392	1.6299	0.12207	0.084381	0.001526	0.053711	-0.06073	-0.36072	0.43243	0.055847	0.072784	0.13092	-0.050964	-0.005798	-0.003662	-0.10651	-0.010223	0.04425	0.013123	-0.000763	-0.004425
12.828	-0.005035	0.037231	0.039063	0.022278	0.026703	0.06958	-0.064087	-0.042419	0.34119	0.000763	-0.088196	-0.002747	-0.25269	0.099487	0.15503	-0.010529	0.064087	-0.018005	-0.13534	0.85403	0.068512	0.10849	0.16861	-0.036774	-0.001068	-0.001221	-0.35828	-0.006409	0.3392	-0.007477	-0.00351	0.003052
12.829	-0.017242	0.056915	0.079193	-0.028534	0.017853	0.086365	-0.039368	-0.019836	0.097656	-0.002747	-0.027008	0.027161	-0.25833	-0.022888	0.16571	-0.008087	0.090637	0.11688	1.277	0.59876	0.06012	0.11551	0.30777	0.038757	0.049591	0.001526	-0.33203	-0.006256	0.33707	-0.11627	-0.000458	-0.003967
12.83	-0.013123	0.014496	-0.020142	-0.035095	0.017853	0.086517	-0.071259	-0.003357	0.16937	-0.023499	0.009155	0.01297	0.063934	-0.035706	0.03418	-0.002594	0.11734	-0.059204	1.0173	0.39261	0.055542	0.11536	0.30487	0.035706	0.080414	0.000458	0.010223	0.004425	0.6575	-0.30365	-0.000916	-0.00351
12.831	-0.009766	0.003662	0.044403	-0.005188	0.013428	0.08255	-0.092621	0.005798	0.36911	-0.023956	0.032501	0.032501	-0.52368	0.098572	0.010986	-0.007324	0.14175	-0.087433	0.14297	0.21469	0.029449	0.10574	0.20309	-0.069885	0.052795	0.001526	-0.35751	-0.004883	0.80658	-0.35553	-0.002289	-0.002747
12.832	-0.008545	0.027008	0.4129	-0.011139	0.006409	0.076752	-0.11398	0.026855	0.30609	-0.006104	0.069733	0.037384	-1.0721	0.29816	0.089111	-0.01709	0.007935	-0.054016	0.14221	-0.057526	0.000153	0.10757	0.12116	-0.14969	0.028076	-0.001068	-0.62958	-0.009613	0.47257	-0.22263	-0.001831	-0.000153
12.833	0.0177	0.001373	0.38895	-0.017395	0.011749	0.07843	-0.087433	0.022583	0.23041	0.007935	0.070496	0.01709	-0.21194	0.11139	-0.091248	-0.037384	-0.080719	-0.11993	-0.12405	-0.067749	0.01358	0.10056	0.097351	-0.076141	0.026398	0.003052	-1.1285	-0.001678	0.25543	-0.17883	-0.001831	-0.005035
12.834	0.027008	-0.053406	0.21942	-0.005951	0.012512	0.079498	-0.083618	0.00946	0.13763	0.04364	0.0177	0.014038	0.15305	-0.054474	-0.04303	-0.032349	-0.12375	-0.10452	-0.000763	-0.007019	0.03006	0.095978	0.058136	-0.038757	0.035858	-0.000458	0.001526	-0.001068	-0.43289	-0.071259	0.001373	-0.001373
12.835	0.016937	-0.12405	0.006256	0.013123	0.012817	0.1059	0.012665	-0.008698	-0.024109	0.063934	0.013733	-0.00351	-0.30991	-0.16571	0.087433	-0.022583	-0.19623	-0.14618	0.41946	-0.02655	0.050964	0.11459	0.036163	0.01297	0.057678	0.005646	-0.093536	-0.004272	-0.53024	-0.1152	-0.000153	-0.005188
12.836	0.010986	-0.086365	0.008698	0.018768	0.011139	0.11032	-0.004883	0.004883	-0.31693	0.076599	0.034485	0.028381	-0.7309	-0.19134	0.11978	-0.018463	-0.2243	-0.19348	0.48874	0.009766	0.073547	0.11459	0.021362	0.056458	0.061951	0.017853	-0.401	0.000153	-0.52002	-0.075684	-0.001373	-0.009003
12.837	-0.022736	-0.058594	0.10742	0.032043	-0.002136	0.14572	-0.12528	-0.018616	-0.56229	0.01358	-0.034485	0.030212	0.24292	-0.17303	0.20981	-0.016022	-0.24017	-0.11246	0.56946	-0.10788	0.11719	0.11658	0.056458	0.10162	0.046692	0.012665	-0.59158	-0.006866	0.41122	-0.077972	0.000763	-0.014191
12.838	-0.025787	-0.00061	0.074005	0.012207	-0.046844	0.17105	-0.10895	-0.038605	-0.62714	-0.014496	-0.19226	0.020142	-0.081787	0.048218	-0.012512	-0.004425	-0.21194	-0.013123	-0.1648	-0.28458	0.11505	0.085754	0.1149	0.08255	0.02121	-0.003052	0.45837	-0.009766	0.46722	0.037231	-0.001678	-0.012207
12.839	-0.051422	0.03067	0.12833	-0.005341	-0.054321	0.20325	0.049286	-0.022888	-0.54596	-0.011139	-0.23239	0.025635	-0.47623	0.21988	-0.10834	-0.011444	-0.13931	0.035248	-0.35629	-0.46982	0.12848	0.043945	0.13428	0.028992	0.002136	-0.012817	0.78613	-0.007019	-0.45029	0.21988	-0.000153	-0.016174
12.84	-0.063782	0.008392	0.055542	0.006714	-0.049744	0.18662	0.19913	-0.019226	-0.40344	0.027161	-0.28015	0.02182	0.19592	0.14465	-0.39993	-0.028076	-0.079193	0.043335	-0.60043	-0.4393	0.10178	-0.000916	0.18707	-0.019379	-0.035095	-0.008545	0.45593	-0.003967	-0.44678	0.21652	-0.007477	-0.015106
12.841	-0.065002	0.029755	0.054169	0	-0.024414	0.097656	0.1059	-0.006866	-0.32196	0.027466	0.015717	0.010681	0.25681	0.024567	-0.38422	-0.018616	-0.047302	0.009613	0.12299	-0.31067	0.071106	-0.035706	0.17563	-0.058594	-0.049591	-0.001831	0.84274	-0.00824	-0.058289	0.18845	-0.002594	-0.011902
12.842	-0.055847	0.077667	0.067902	-0.003052	-0.020447	-0.020905	-0.068054	0.016632	-0.14938	0.006256	0.22507	0.018311	-0.032043	0.094757	0.048828	-0.010681	-0.039368	0.080261	1.8938	-0.13779	0.06134	-0.040283	0.12375	-0.15945	-0.026093	0.004578	0.68634	-0.002594	0.7135	0.13245	-0.004578	-0.01236
12.843	-0.030975	0.089874	0.008392	0.030823	-0.037079	-0.13138	-0.29846	0.040131	-0.06073	-0.002441	0.43228	0.014954	-0.02182	0.055084	0.71213	-0.015564	-0.030212	0.033722	0.97626	0.082092	0.05188	-0.018311	0.10086	-0.16769	-0.026398	-0.002747	0.59601	0.005493	0.068207	0.064697	-0.004272	-0.013123
12.844	-0.003967	0.070801	0.07019	0.025024	0.021515	-0.16449	-0.27603	0.066071	0.062561	-0.045013	0.32318	0.018616	0.13397	0.15427	0.53116	0.007172	-0.023651	-0.010986	-0.20859	0.28442	0.061035	-0.014801	0.079346	-0.12894	-0.027924	0.001221	-0.79926	-0.006866	-0.48798	-0.076447	-0.001221	-0.004883
12.845	0.003967	0.072784	0.16113	0.015411	0.035553	-0.14832	-0.16373	0.050964	0.18249	-0.012665	0.47669	0.016632	-0.009003	0.20676	1.2068	0.002136	-0.038452	0.038147	-0.52933	0.12894	0.054932	0.016479	0.086517	-0.088348	-0.023804	-0.007019	-1.2537	-0.002747	-0.75775	-0.027313	0.003052	-0.009155
12.846	0.013885	0.079498	0.2034	0.012512	0.036621	-0.045471	-0.18646	0.026855	0.26489	0.000458	0.18341	0.006561	0.057983	0.13351	-0.50415	-0.009003	-0.083313	0.043945	-0.067596	0.099182	0.054932	0.029144	0.096741	-0.081024	-0.013275	-0.009003	-0.063782	-0.008392	-0.48416	-0.06012	0.005341	-0.007324
12.847	0.037994	0.045929	-0.010376	0.015106	0.050354	0.032654	-0.30228	-0.006866	0.29282	-0.015106	-0.21668	0.020294	0.11215	0.18402	-0.59067	-0.001373	-0.069275	0.046539	0.24841	0.15045	0.050049	0.036316	0.10071	-0.061493	-0.006866	0.000916	0.92758	-0.002594	0.047913	-0.018311	-0.003662	-0.012054
12.848	0.056	0.030365	-0.084076	0.021057	0.06134	0.007019	-0.38467	-0.055237	0.45273	-0.075378	-0.14633	0.01297	0.042267	0.061798	-0.69519	-0.00946	-0.065155	-0.077515	0.32425	0.12497	0.053558	0.068817	0.077209	-0.051727	0.008545	-0.01709	1.2389	-0.006561	0.36224	0.083618	0.001068	-0.016785
12.849	0.060883	0.075531	0.059814	-0.02655	0.069275	0.051727	-0.28381	-0.064087	0.78491	0.013733	-0.20371	-0.006866	0.081329	0.048676	-0.392	0.006561	-0.041809	-0.063324	0.02121	-0.057678	0.048981	0.06424	0.10834	-0.042572	0.019989	-0.019531	0.47562	-0.004578	0.36819	0.036621	0.000458	-0.012665
12.85	0.057526	0.004425	-0.089111	0.006561	0.019989	0.081635	-0.032501	-0.074615	0.59937	0.051422	-0.22369	-0.005341	0.023346	0.057068	-0.28015	0.016327	0.019836	-0.017395	-0.17517	-0.16144	0.034943	0.028534	0.13306	-0.078583	-0.011139	-0.013275	-0.33859	-0.001678	0.28885	-0.121	-0.00412	-0.003204
12.851	0.052185	0.010376	-0.1062	0.010529	0.02243	0.085602	0.11368	-0.0737	0.3064	0.028687	-0.19073	-0.015106	0.045929	0.041809	-0.39856	0.014343	0.03067	0.025787	-0.4158	-0.24414	0.028992	0.026093	0.14313	-0.09964	-0.002136	-0.014343	-0.38742	-0.003357	0.1297	-0.11887	0.000458	-0.010376
12.852	0.053253	0.023804	-0.11902	0.001678	0.039673	0.029602	0.032349	-0.055695	0.2327	0.046844	-0.05127	-0.003662	-0.02243	-0.11978	-0.43243	0.014343	0.048218	0.006256	-0.21927	-0.25192	0.032806	0.013733	0.13062	-0.13016	0.008087	-0.008087	-0.043335	-0.000305	0.30151	-0.13138	0.000916	-0.01236
12.853	0.098724	-0.008392	-0.18616	-0.003662	0.082397	-0.032349	-0.046692	-0.010223	0.19012	0.047455	0.009003	-0.013885	-0.12436	-0.25009	-0.16235	0.014954	0.079498	0.019073	0.041962	-0.12421	0.033264	-0.002441	0.14206	-0.093994	-0.003052	-0.000305	-0.31235	-0.007935	0.34302	-0.003815	0.003357	-0.006104
12.854	0.060883	0.047913	-0.18631	0.009308	0.088959	-0.04303	-0.07309	0.016327	0.103	0.073853	0.005493	-0.014801	0.18356	-0.17181	0.058136	0.019073	0.056458	-0.021057	1.1072	-0.041656	0.041351	0.002136	0.13565	-0.084839	0.03006	-0.007629	-0.23468	-0.001984	-0.11658	0.048828	-0.000458	-0.011292
